<?xml version="1.0" encoding="UTF-8"?>
<svg id="_레이어_1" data-name="레이어 1" xmlns="http://www.w3.org/2000/svg" viewBox="0 0 456.05 463.76">
  <defs>
    <style>
      .cls-1 {
        fill: #5b4a9c;
      }

      .cls-2 {
        fill: #fff;
      }

      .cls-3 {
        fill: #e2616e;
      }

      .cls-4 {
        fill: #2c2c7a;
      }

      .cls-5 {
        fill: #ec9961;
      }
    </style>
  </defs>
  <path class="cls-5" d="M321.77,443.1c-25.58,11.73-52.83,18.68-80.79,20.29-40.47,2.33-80.73-6.52-116.65-25.19-18.54-9.64-35.5-21.74-50.78-35.95l-12.18-12.13c-24.36-26.52-41.8-57.39-51.96-92.01-2.98-10.17-5.29-20.43-6.84-30.93-3.56-24.21-3.48-48.67.51-72.8,1.66-10.06,3.75-19.83,6.72-29.53,5.68-18.5,13.43-36.29,23.5-52.78,4.7-7.7,9.45-15.15,15.02-22.26,7.6-9.7,15.58-18.95,24.55-27.42,12.89-12.17,26.73-23.01,42.15-31.89C151.3,9.58,188.98-.45,231.04.02c27.59.3,54.74,5.48,80.29,15.95,13.17,5.39,25.82,11.7,37.79,19.44,11.44,7.4,22.06,15.71,32,24.97l11.78,11.76c9.6,10.32,18.13,21.33,25.76,33.21l11.41,19.59c5.57,10.72,10.17,21.74,14.04,33.15l3.82,12.75c3.19,10.64,5.09,21.55,6.41,32.65,2.9,24.51,2.15,49.26-2.58,73.52s-12.67,46.15-24.07,67.15c-10.2,18.79-23.02,35.85-37.88,51.08l-8.08,7.77c-17.73,16.37-37.83,29.94-59.97,40.09Z"/>
  <path class="cls-4" d="M339.91,348c-4.39,5.88-9.78,10.31-16.34,13.29-5.05,2.3-10.24,3.31-15.85,3.31h-158.38c-4.1,0-7.85-.29-11.74-1.47-10.71-3.27-19.82-10.76-24.85-20.81-2.98-5.96-4.24-12.38-4.24-19.12l-.05-84.69-.02-64.2c0-6.05.98-11.78,3.43-17.19,6-13.23,18.85-21.99,33.39-22.52l15.27-.06.1-10.5c.05-7.07,5.16-12.89,11.47-15,7-2.35,14.38.08,18.83,5.77,2.23,2.85,3.38,6.31,3.39,9.93l.06,9.81h67.31s.05-10.3.05-10.3c.02-5.25,2.98-9.97,6.83-12.77,4.62-3.35,10.17-4.2,15.4-2.45,6.61,2.21,11.05,8.1,11.39,15.08l.1,10.38,15.84.09c13.6.65,25.99,8.58,32.04,20.83,2.46,4.98,4.2,10.64,4.2,16.38l.06,151.4c0,8.95-2.3,17.56-7.7,24.79Z"/>
  <g>
    <path class="cls-1" d="M295.37,157.96l.1-14.16,16.32.13c10.95.7,20.35,7.63,24.99,17.42,1.83,4.13,3.08,8.3,3.09,12.83l.05,14.57-17.22-.02-167.4-.02-39.12.06.06-15.14c.41-8.66,4.12-16.55,10.51-22.27,5.1-4.27,11.04-7.15,17.77-7.46l16.06-.11-.03,13.06c-.02,9.35,7.4,16.77,16.74,16.85s16.34-6.59,16.97-15.63l.12-14.24h67.29s.08,13.78.08,13.78c.02,4.03,1.78,7.67,4.32,10.67,6.23,6.58,16.44,7.32,23.37,1.5,3.52-2.96,5.89-7.07,5.93-11.82Z"/>
    <path class="cls-1" d="M186.46,157.5c0,4.49-3.56,7.76-7.67,8.32-5.9.81-10.49-3.63-10.47-9.48l.1-31.4c0-2.97,1.9-5.39,4.19-6.98,3.66-2.54,8.28-1.87,11.27,1.3,1.77,1.87,2.65,3.96,2.65,6.63l-.06,31.6Z"/>
    <path class="cls-1" d="M278.99,165.91c-5.77.18-9.52-4.18-9.49-9.57l.19-31.72c.03-4.77,4.91-8.55,9.57-8.16,4.08.33,8.16,3.88,8.17,8.16l.03,33.49c0,4.43-4.26,7.67-8.47,7.8Z"/>
  </g>
  <g>
    <path class="cls-2" d="M339.89,323.44c.27,14.03-8.5,26.58-21.33,31.54-3.15,1.22-6.34,1.98-9.84,1.98l-159.89.03c-6.87,0-13.22-2.12-18.69-6.08-8.77-6.33-13.88-16.04-13.88-26.97l-.03-64.45-.02-60.72h16.88s171.15,0,171.15,0h35.67s-.06,11.27-.06,11.27l.03,113.4Z"/>
    <g>
      <path class="cls-3" d="M179.33,285.08c-6.01,5-16.39,4.94-22.34,0-2.61-2.16-4.22-5.13-3.87-8.59.26-2.58,1.66-5.01,3.78-6.66,6.27-4.89,15.27-5.03,21.77-.53,2.69,1.86,4.2,4.64,4.38,7.61.19,3.23-1.2,6.09-3.71,8.17Z"/>
      <path class="cls-3" d="M300.64,283.66c-6.2,7.2-20.27,6.59-25.59-.4-3.46-4.54-2.36-10.7,2.36-13.95,5.31-3.66,12.26-4.3,18.19-1.67,2.06.91,3.79,2.15,5.18,3.83,3,3.63,2.95,8.59-.14,12.18Z"/>
      <path class="cls-4" d="M196.36,259.13c-4.51,5.58-12.35,5.97-17.35,1.09-5.2-5.07-5.22-13.45-.31-18.78,4.94-5.35,13.39-4.98,17.78.91,3.63,4.88,3.8,11.94-.12,16.78Z"/>
      <path class="cls-4" d="M277.93,259.23c-2.34,2.89-5.6,4.36-9.02,4.38-3.5.01-6.76-1.58-9.11-4.45-3.9-4.76-3.93-11.89-.2-16.8,2.5-3.29,6.16-4.92,10.24-4.63,3.68.26,7.1,2.41,9.17,5.85,2.89,4.81,2.55,11.16-1.08,15.65Z"/>
      <path class="cls-4" d="M240.4,281c.17-2.11,1.63-3.63,3.54-3.78,1.62-.13,3.8,1.1,3.98,3.14.4,4.7-1.62,9.28-4.62,12.82-7.57,8.9-20.75,9.48-29.08,1.31-3.77-3.7-6.24-8.68-5.98-14.04.09-1.96,2.06-3.3,3.65-3.27,1.83.03,3.59,1.44,3.78,3.43.38,3.98,2.04,7.35,5.31,9.71,4.5,3.24,10.39,3.09,14.72-.4,2.77-2.23,4.4-5.21,4.7-8.92Z"/>
    </g>
  </g>
</svg>